<mxfile host="app.diagrams.net" modified="2023-10-01T11:54:15.054Z" agent="Mozilla/5.0 (Windows NT 10.0; Win64; x64) AppleWebKit/537.36 (KHTML, like Gecko) Chrome/117.0.0.0 Safari/537.36" etag="xhJdkxlYGO1nkdyCjWFx" version="22.0.0" type="device">
  <diagram name="Side-1" id="RN6faYAddbhCZujivlKj">
    <mxGraphModel dx="1760" dy="1684" grid="1" gridSize="10" guides="1" tooltips="1" connect="1" arrows="1" fold="1" page="1" pageScale="1" pageWidth="827" pageHeight="1169" math="0" shadow="0">
      <root>
        <mxCell id="0" />
        <mxCell id="1" parent="0" />
        <mxCell id="Q9VDW2REFDaIjdWDE4UB-3" style="edgeStyle=orthogonalEdgeStyle;rounded=0;orthogonalLoop=1;jettySize=auto;html=1;endArrow=none;endFill=0;dashed=1;" edge="1" parent="1" source="Q9VDW2REFDaIjdWDE4UB-142">
          <mxGeometry relative="1" as="geometry">
            <mxPoint x="-105" y="680" as="targetPoint" />
          </mxGeometry>
        </mxCell>
        <mxCell id="Q9VDW2REFDaIjdWDE4UB-1" value="" style="shape=umlActor;verticalLabelPosition=bottom;verticalAlign=top;html=1;outlineConnect=0;" vertex="1" parent="1">
          <mxGeometry x="-120" y="150" width="30" height="60" as="geometry" />
        </mxCell>
        <mxCell id="Q9VDW2REFDaIjdWDE4UB-9" style="edgeStyle=orthogonalEdgeStyle;rounded=0;orthogonalLoop=1;jettySize=auto;html=1;endArrow=none;endFill=0;dashed=1;" edge="1" parent="1" source="Q9VDW2REFDaIjdWDE4UB-118">
          <mxGeometry relative="1" as="geometry">
            <mxPoint x="65" y="681" as="targetPoint" />
            <Array as="points">
              <mxPoint x="65" y="681" />
            </Array>
          </mxGeometry>
        </mxCell>
        <mxCell id="Q9VDW2REFDaIjdWDE4UB-4" value="EnvironmentController&lt;br&gt;.java" style="rounded=0;whiteSpace=wrap;html=1;" vertex="1" parent="1">
          <mxGeometry y="150" width="130" height="60" as="geometry" />
        </mxCell>
        <mxCell id="Q9VDW2REFDaIjdWDE4UB-127" style="edgeStyle=orthogonalEdgeStyle;rounded=0;orthogonalLoop=1;jettySize=auto;html=1;dashed=1;endArrow=none;endFill=0;" edge="1" parent="1" source="Q9VDW2REFDaIjdWDE4UB-5">
          <mxGeometry relative="1" as="geometry">
            <mxPoint x="1330" y="680" as="targetPoint" />
          </mxGeometry>
        </mxCell>
        <mxCell id="Q9VDW2REFDaIjdWDE4UB-5" value="&amp;lt;api&amp;gt;" style="rounded=0;whiteSpace=wrap;html=1;" vertex="1" parent="1">
          <mxGeometry x="1270" y="150" width="120" height="60" as="geometry" />
        </mxCell>
        <mxCell id="Q9VDW2REFDaIjdWDE4UB-99" style="edgeStyle=orthogonalEdgeStyle;rounded=0;orthogonalLoop=1;jettySize=auto;html=1;endArrow=none;endFill=0;dashed=1;" edge="1" parent="1" source="Q9VDW2REFDaIjdWDE4UB-6">
          <mxGeometry relative="1" as="geometry">
            <mxPoint x="1190" y="680" as="targetPoint" />
          </mxGeometry>
        </mxCell>
        <mxCell id="Q9VDW2REFDaIjdWDE4UB-6" value="docker" style="rounded=0;whiteSpace=wrap;html=1;" vertex="1" parent="1">
          <mxGeometry x="1130" y="150" width="120" height="60" as="geometry" />
        </mxCell>
        <mxCell id="Q9VDW2REFDaIjdWDE4UB-7" value="EnvironmentProvider" style="shape=umlFrame;whiteSpace=wrap;html=1;pointerEvents=0;width=140;height=30;" vertex="1" parent="1">
          <mxGeometry x="-10" y="110" width="1130" height="110" as="geometry" />
        </mxCell>
        <mxCell id="Q9VDW2REFDaIjdWDE4UB-8" value="deployed server" style="shape=umlFrame;whiteSpace=wrap;html=1;pointerEvents=0;width=130;height=30;" vertex="1" parent="1">
          <mxGeometry x="1260" y="110" width="140" height="110" as="geometry" />
        </mxCell>
        <mxCell id="Q9VDW2REFDaIjdWDE4UB-10" value="" style="rounded=0;whiteSpace=wrap;html=1;" vertex="1" parent="1">
          <mxGeometry x="-110" y="230" width="10" height="20" as="geometry" />
        </mxCell>
        <mxCell id="Q9VDW2REFDaIjdWDE4UB-11" value="" style="endArrow=classic;html=1;rounded=0;" edge="1" parent="1">
          <mxGeometry width="50" height="50" relative="1" as="geometry">
            <mxPoint x="-90" y="240" as="sourcePoint" />
            <mxPoint x="50" y="240" as="targetPoint" />
          </mxGeometry>
        </mxCell>
        <mxCell id="Q9VDW2REFDaIjdWDE4UB-13" value="Http Request" style="edgeLabel;html=1;align=center;verticalAlign=middle;resizable=0;points=[];" vertex="1" connectable="0" parent="Q9VDW2REFDaIjdWDE4UB-11">
          <mxGeometry x="-0.1101" y="1" relative="1" as="geometry">
            <mxPoint y="-9" as="offset" />
          </mxGeometry>
        </mxCell>
        <mxCell id="Q9VDW2REFDaIjdWDE4UB-12" value="" style="rounded=0;whiteSpace=wrap;html=1;" vertex="1" parent="1">
          <mxGeometry x="60" y="230" width="10" height="130" as="geometry" />
        </mxCell>
        <mxCell id="Q9VDW2REFDaIjdWDE4UB-18" style="edgeStyle=orthogonalEdgeStyle;rounded=0;orthogonalLoop=1;jettySize=auto;html=1;endArrow=none;endFill=0;dashed=1;" edge="1" source="Q9VDW2REFDaIjdWDE4UB-77" parent="1">
          <mxGeometry relative="1" as="geometry">
            <mxPoint x="205" y="680" as="targetPoint" />
            <Array as="points">
              <mxPoint x="205" y="680" />
            </Array>
          </mxGeometry>
        </mxCell>
        <mxCell id="Q9VDW2REFDaIjdWDE4UB-19" value="HostAccessService&lt;br&gt;.java" style="rounded=0;whiteSpace=wrap;html=1;" vertex="1" parent="1">
          <mxGeometry x="140" y="150" width="130" height="60" as="geometry" />
        </mxCell>
        <mxCell id="Q9VDW2REFDaIjdWDE4UB-23" value="" style="endArrow=classic;startArrow=classic;html=1;rounded=0;" edge="1" parent="1">
          <mxGeometry width="50" height="50" relative="1" as="geometry">
            <mxPoint x="80" y="290" as="sourcePoint" />
            <mxPoint x="190" y="290" as="targetPoint" />
          </mxGeometry>
        </mxCell>
        <mxCell id="Q9VDW2REFDaIjdWDE4UB-25" value="isDockerRunning" style="edgeLabel;html=1;align=center;verticalAlign=middle;resizable=0;points=[];" vertex="1" connectable="0" parent="Q9VDW2REFDaIjdWDE4UB-23">
          <mxGeometry x="-0.1081" relative="1" as="geometry">
            <mxPoint x="11" y="-10" as="offset" />
          </mxGeometry>
        </mxCell>
        <mxCell id="Q9VDW2REFDaIjdWDE4UB-24" value="" style="edgeStyle=orthogonalEdgeStyle;rounded=0;orthogonalLoop=1;jettySize=auto;html=1;endArrow=none;endFill=0;dashed=1;" edge="1" parent="1" source="Q9VDW2REFDaIjdWDE4UB-19" target="Q9VDW2REFDaIjdWDE4UB-20">
          <mxGeometry relative="1" as="geometry">
            <mxPoint x="200" y="1252.507745150862" as="targetPoint" />
            <mxPoint x="205" y="210" as="sourcePoint" />
            <Array as="points" />
          </mxGeometry>
        </mxCell>
        <mxCell id="Q9VDW2REFDaIjdWDE4UB-20" value="" style="rounded=0;whiteSpace=wrap;html=1;" vertex="1" parent="1">
          <mxGeometry x="200" y="280" width="10" height="20" as="geometry" />
        </mxCell>
        <mxCell id="Q9VDW2REFDaIjdWDE4UB-31" style="edgeStyle=orthogonalEdgeStyle;rounded=0;orthogonalLoop=1;jettySize=auto;html=1;endArrow=none;endFill=0;dashed=1;" edge="1" parent="1" source="Q9VDW2REFDaIjdWDE4UB-32">
          <mxGeometry relative="1" as="geometry">
            <mxPoint x="345" y="680" as="targetPoint" />
          </mxGeometry>
        </mxCell>
        <mxCell id="Q9VDW2REFDaIjdWDE4UB-30" value="ServerSpecInspector&lt;br&gt;.java" style="rounded=0;whiteSpace=wrap;html=1;" vertex="1" parent="1">
          <mxGeometry x="280" y="150" width="130" height="60" as="geometry" />
        </mxCell>
        <mxCell id="Q9VDW2REFDaIjdWDE4UB-33" value="" style="edgeStyle=orthogonalEdgeStyle;rounded=0;orthogonalLoop=1;jettySize=auto;html=1;endArrow=none;endFill=0;dashed=1;" edge="1" parent="1" source="Q9VDW2REFDaIjdWDE4UB-30" target="Q9VDW2REFDaIjdWDE4UB-32">
          <mxGeometry relative="1" as="geometry">
            <mxPoint x="345" y="1281.3853236607142" as="targetPoint" />
            <mxPoint x="345" y="210" as="sourcePoint" />
          </mxGeometry>
        </mxCell>
        <mxCell id="Q9VDW2REFDaIjdWDE4UB-32" value="" style="rounded=0;whiteSpace=wrap;html=1;" vertex="1" parent="1">
          <mxGeometry x="340" y="300" width="10" height="20" as="geometry" />
        </mxCell>
        <mxCell id="Q9VDW2REFDaIjdWDE4UB-34" value="" style="endArrow=classic;startArrow=classic;html=1;rounded=0;" edge="1" parent="1">
          <mxGeometry width="50" height="50" relative="1" as="geometry">
            <mxPoint x="80" y="309.71" as="sourcePoint" />
            <mxPoint x="330" y="310" as="targetPoint" />
          </mxGeometry>
        </mxCell>
        <mxCell id="Q9VDW2REFDaIjdWDE4UB-35" value="verify" style="edgeLabel;html=1;align=center;verticalAlign=middle;resizable=0;points=[];" vertex="1" connectable="0" parent="Q9VDW2REFDaIjdWDE4UB-34">
          <mxGeometry x="-0.1081" relative="1" as="geometry">
            <mxPoint x="79" y="-10" as="offset" />
          </mxGeometry>
        </mxCell>
        <mxCell id="Q9VDW2REFDaIjdWDE4UB-37" style="edgeStyle=orthogonalEdgeStyle;rounded=0;orthogonalLoop=1;jettySize=auto;html=1;endArrow=none;endFill=0;dashed=1;" edge="1" parent="1" source="Q9VDW2REFDaIjdWDE4UB-132">
          <mxGeometry relative="1" as="geometry">
            <mxPoint x="485" y="680" as="targetPoint" />
          </mxGeometry>
        </mxCell>
        <mxCell id="Q9VDW2REFDaIjdWDE4UB-36" value="DockerfileBuilder&lt;br&gt;.java" style="rounded=0;whiteSpace=wrap;html=1;" vertex="1" parent="1">
          <mxGeometry x="420" y="150" width="130" height="60" as="geometry" />
        </mxCell>
        <mxCell id="Q9VDW2REFDaIjdWDE4UB-38" value="" style="endArrow=classic;startArrow=classic;html=1;rounded=0;" edge="1" parent="1">
          <mxGeometry width="50" height="50" relative="1" as="geometry">
            <mxPoint x="80" y="330" as="sourcePoint" />
            <mxPoint x="470" y="330" as="targetPoint" />
          </mxGeometry>
        </mxCell>
        <mxCell id="Q9VDW2REFDaIjdWDE4UB-39" value="&amp;lt;does reference file exist&amp;gt;" style="edgeLabel;html=1;align=center;verticalAlign=middle;resizable=0;points=[];" vertex="1" connectable="0" parent="Q9VDW2REFDaIjdWDE4UB-38">
          <mxGeometry x="-0.1081" relative="1" as="geometry">
            <mxPoint x="-49" y="-10" as="offset" />
          </mxGeometry>
        </mxCell>
        <mxCell id="Q9VDW2REFDaIjdWDE4UB-42" style="edgeStyle=orthogonalEdgeStyle;rounded=0;orthogonalLoop=1;jettySize=auto;html=1;endArrow=none;endFill=0;dashed=1;" edge="1" parent="1" source="Q9VDW2REFDaIjdWDE4UB-47">
          <mxGeometry relative="1" as="geometry">
            <mxPoint x="625" y="680" as="targetPoint" />
          </mxGeometry>
        </mxCell>
        <mxCell id="Q9VDW2REFDaIjdWDE4UB-41" value="DockerServerDeployer&lt;br&gt;.java" style="rounded=0;whiteSpace=wrap;html=1;" vertex="1" parent="1">
          <mxGeometry x="560" y="150" width="130" height="60" as="geometry" />
        </mxCell>
        <mxCell id="Q9VDW2REFDaIjdWDE4UB-43" value="" style="endArrow=classic;html=1;rounded=0;" edge="1" parent="1">
          <mxGeometry width="50" height="50" relative="1" as="geometry">
            <mxPoint x="80" y="350" as="sourcePoint" />
            <mxPoint x="610" y="350" as="targetPoint" />
          </mxGeometry>
        </mxCell>
        <mxCell id="Q9VDW2REFDaIjdWDE4UB-44" value="deployServerSync" style="edgeLabel;html=1;align=center;verticalAlign=middle;resizable=0;points=[];" vertex="1" connectable="0" parent="Q9VDW2REFDaIjdWDE4UB-43">
          <mxGeometry x="-0.1101" y="1" relative="1" as="geometry">
            <mxPoint x="-36" y="-9" as="offset" />
          </mxGeometry>
        </mxCell>
        <mxCell id="Q9VDW2REFDaIjdWDE4UB-48" value="" style="edgeStyle=orthogonalEdgeStyle;rounded=0;orthogonalLoop=1;jettySize=auto;html=1;endArrow=none;endFill=0;dashed=1;" edge="1" parent="1" source="Q9VDW2REFDaIjdWDE4UB-41" target="Q9VDW2REFDaIjdWDE4UB-47">
          <mxGeometry relative="1" as="geometry">
            <mxPoint x="625" y="1292.5078293372844" as="targetPoint" />
            <mxPoint x="625" y="210" as="sourcePoint" />
          </mxGeometry>
        </mxCell>
        <mxCell id="Q9VDW2REFDaIjdWDE4UB-47" value="" style="rounded=0;whiteSpace=wrap;html=1;" vertex="1" parent="1">
          <mxGeometry x="620" y="340" width="10" height="240" as="geometry" />
        </mxCell>
        <mxCell id="Q9VDW2REFDaIjdWDE4UB-51" style="edgeStyle=orthogonalEdgeStyle;rounded=0;orthogonalLoop=1;jettySize=auto;html=1;endArrow=baseDash;endFill=0;" edge="1" parent="1" source="Q9VDW2REFDaIjdWDE4UB-49">
          <mxGeometry relative="1" as="geometry">
            <mxPoint x="20" y="330" as="targetPoint" />
          </mxGeometry>
        </mxCell>
        <mxCell id="Q9VDW2REFDaIjdWDE4UB-49" value="Request&lt;br&gt;Verification" style="text;html=1;strokeColor=none;fillColor=none;align=center;verticalAlign=middle;whiteSpace=wrap;rounded=0;" vertex="1" parent="1">
          <mxGeometry x="-10" y="250" width="60" height="30" as="geometry" />
        </mxCell>
        <mxCell id="Q9VDW2REFDaIjdWDE4UB-52" value="Researcher" style="text;html=1;strokeColor=none;fillColor=none;align=center;verticalAlign=middle;whiteSpace=wrap;rounded=0;" vertex="1" parent="1">
          <mxGeometry x="-135" y="120" width="60" height="30" as="geometry" />
        </mxCell>
        <mxCell id="Q9VDW2REFDaIjdWDE4UB-53" value="&lt;font style=&quot;font-size: 32px;&quot;&gt;v 1.0.0&lt;/font&gt;" style="text;html=1;strokeColor=none;fillColor=none;align=center;verticalAlign=middle;whiteSpace=wrap;rounded=0;" vertex="1" parent="1">
          <mxGeometry x="-80" width="320" height="30" as="geometry" />
        </mxCell>
        <mxCell id="Q9VDW2REFDaIjdWDE4UB-54" value="&lt;font style=&quot;font-size: 32px;&quot;&gt;Deployment Sequence*&lt;br&gt;for EnvironmentProvider&lt;br&gt;&lt;/font&gt;" style="text;html=1;strokeColor=none;fillColor=none;align=center;verticalAlign=middle;whiteSpace=wrap;rounded=0;" vertex="1" parent="1">
          <mxGeometry x="-100" y="-80" width="370" height="80" as="geometry" />
        </mxCell>
        <mxCell id="Q9VDW2REFDaIjdWDE4UB-55" value="" style="endArrow=none;startArrow=classic;html=1;rounded=0;endFill=0;dashed=1;" edge="1" parent="1">
          <mxGeometry width="50" height="50" relative="1" as="geometry">
            <mxPoint x="-90" y="330" as="sourcePoint" />
            <mxPoint x="10" y="330" as="targetPoint" />
          </mxGeometry>
        </mxCell>
        <mxCell id="Q9VDW2REFDaIjdWDE4UB-56" value="404" style="edgeLabel;html=1;align=center;verticalAlign=middle;resizable=0;points=[];" vertex="1" connectable="0" parent="Q9VDW2REFDaIjdWDE4UB-55">
          <mxGeometry x="-0.3514" y="-1" relative="1" as="geometry">
            <mxPoint x="-12" y="-1" as="offset" />
          </mxGeometry>
        </mxCell>
        <mxCell id="Q9VDW2REFDaIjdWDE4UB-57" value="" style="endArrow=none;startArrow=classic;html=1;rounded=0;endFill=0;dashed=1;" edge="1" parent="1">
          <mxGeometry width="50" height="50" relative="1" as="geometry">
            <mxPoint x="-90" y="309.8" as="sourcePoint" />
            <mxPoint x="10" y="309.8" as="targetPoint" />
          </mxGeometry>
        </mxCell>
        <mxCell id="Q9VDW2REFDaIjdWDE4UB-58" value="406" style="edgeLabel;html=1;align=center;verticalAlign=middle;resizable=0;points=[];" vertex="1" connectable="0" parent="Q9VDW2REFDaIjdWDE4UB-57">
          <mxGeometry x="-0.3514" y="-1" relative="1" as="geometry">
            <mxPoint x="-12" y="-1" as="offset" />
          </mxGeometry>
        </mxCell>
        <mxCell id="Q9VDW2REFDaIjdWDE4UB-59" value="" style="endArrow=none;startArrow=classic;html=1;rounded=0;endFill=0;dashed=1;" edge="1" parent="1">
          <mxGeometry width="50" height="50" relative="1" as="geometry">
            <mxPoint x="-90" y="289.8" as="sourcePoint" />
            <mxPoint x="10" y="289.8" as="targetPoint" />
          </mxGeometry>
        </mxCell>
        <mxCell id="Q9VDW2REFDaIjdWDE4UB-60" value="500" style="edgeLabel;html=1;align=center;verticalAlign=middle;resizable=0;points=[];" vertex="1" connectable="0" parent="Q9VDW2REFDaIjdWDE4UB-59">
          <mxGeometry x="-0.3514" y="-1" relative="1" as="geometry">
            <mxPoint x="-12" y="-1" as="offset" />
          </mxGeometry>
        </mxCell>
        <mxCell id="Q9VDW2REFDaIjdWDE4UB-61" value="" style="endArrow=none;dashed=1;html=1;rounded=0;" edge="1" parent="1">
          <mxGeometry width="50" height="50" relative="1" as="geometry">
            <mxPoint x="30" y="330" as="sourcePoint" />
            <mxPoint x="50" y="330" as="targetPoint" />
          </mxGeometry>
        </mxCell>
        <mxCell id="Q9VDW2REFDaIjdWDE4UB-62" value="" style="endArrow=none;dashed=1;html=1;rounded=0;" edge="1" parent="1">
          <mxGeometry width="50" height="50" relative="1" as="geometry">
            <mxPoint x="30" y="309.8" as="sourcePoint" />
            <mxPoint x="50" y="309.8" as="targetPoint" />
          </mxGeometry>
        </mxCell>
        <mxCell id="Q9VDW2REFDaIjdWDE4UB-63" value="" style="endArrow=none;dashed=1;html=1;rounded=0;" edge="1" parent="1">
          <mxGeometry width="50" height="50" relative="1" as="geometry">
            <mxPoint x="30" y="289.8" as="sourcePoint" />
            <mxPoint x="50" y="289.8" as="targetPoint" />
          </mxGeometry>
        </mxCell>
        <mxCell id="Q9VDW2REFDaIjdWDE4UB-65" value="" style="edgeStyle=orthogonalEdgeStyle;rounded=0;orthogonalLoop=1;jettySize=auto;html=1;endArrow=none;endFill=0;dashed=1;" edge="1" parent="1" source="Q9VDW2REFDaIjdWDE4UB-36" target="Q9VDW2REFDaIjdWDE4UB-64">
          <mxGeometry relative="1" as="geometry">
            <mxPoint x="485" y="1270.346400669643" as="targetPoint" />
            <mxPoint x="485" y="210" as="sourcePoint" />
          </mxGeometry>
        </mxCell>
        <mxCell id="Q9VDW2REFDaIjdWDE4UB-64" value="" style="rounded=0;whiteSpace=wrap;html=1;" vertex="1" parent="1">
          <mxGeometry x="480" y="360" width="10" height="20" as="geometry" />
        </mxCell>
        <mxCell id="Q9VDW2REFDaIjdWDE4UB-66" value="" style="endArrow=classic;startArrow=classic;html=1;rounded=0;" edge="1" parent="1">
          <mxGeometry width="50" height="50" relative="1" as="geometry">
            <mxPoint x="500" y="369.99999999999994" as="sourcePoint" />
            <mxPoint x="610" y="369.99999999999994" as="targetPoint" />
          </mxGeometry>
        </mxCell>
        <mxCell id="Q9VDW2REFDaIjdWDE4UB-67" value="buildFromFile" style="edgeLabel;html=1;align=center;verticalAlign=middle;resizable=0;points=[];" vertex="1" connectable="0" parent="Q9VDW2REFDaIjdWDE4UB-66">
          <mxGeometry x="-0.1081" relative="1" as="geometry">
            <mxPoint x="11" y="-10" as="offset" />
          </mxGeometry>
        </mxCell>
        <mxCell id="Q9VDW2REFDaIjdWDE4UB-40" value="" style="rounded=0;whiteSpace=wrap;html=1;" vertex="1" parent="1">
          <mxGeometry x="480" y="320" width="10" height="20" as="geometry" />
        </mxCell>
        <mxCell id="Q9VDW2REFDaIjdWDE4UB-68" value="" style="endArrow=none;startArrow=classic;html=1;rounded=0;endFill=0;dashed=1;" edge="1" parent="1">
          <mxGeometry width="50" height="50" relative="1" as="geometry">
            <mxPoint x="-90" y="369.66" as="sourcePoint" />
            <mxPoint x="470" y="370" as="targetPoint" />
          </mxGeometry>
        </mxCell>
        <mxCell id="Q9VDW2REFDaIjdWDE4UB-69" value="500" style="edgeLabel;html=1;align=center;verticalAlign=middle;resizable=0;points=[];" vertex="1" connectable="0" parent="Q9VDW2REFDaIjdWDE4UB-68">
          <mxGeometry x="-0.3514" y="-1" relative="1" as="geometry">
            <mxPoint x="-161" y="-1" as="offset" />
          </mxGeometry>
        </mxCell>
        <mxCell id="Q9VDW2REFDaIjdWDE4UB-71" style="edgeStyle=orthogonalEdgeStyle;rounded=0;orthogonalLoop=1;jettySize=auto;html=1;dashed=1;endArrow=none;endFill=0;" edge="1" parent="1" source="Q9VDW2REFDaIjdWDE4UB-70">
          <mxGeometry relative="1" as="geometry">
            <mxPoint x="765" y="680" as="targetPoint" />
            <Array as="points">
              <mxPoint x="765" y="680" />
            </Array>
          </mxGeometry>
        </mxCell>
        <mxCell id="Q9VDW2REFDaIjdWDE4UB-70" value="EnvironmentRegistry&lt;br&gt;.java" style="rounded=0;whiteSpace=wrap;html=1;" vertex="1" parent="1">
          <mxGeometry x="700" y="150" width="130" height="60" as="geometry" />
        </mxCell>
        <mxCell id="Q9VDW2REFDaIjdWDE4UB-72" value="" style="endArrow=classic;startArrow=classic;html=1;rounded=0;" edge="1" parent="1">
          <mxGeometry width="50" height="50" relative="1" as="geometry">
            <mxPoint x="640" y="409.99999999999994" as="sourcePoint" />
            <mxPoint x="750" y="409.99999999999994" as="targetPoint" />
          </mxGeometry>
        </mxCell>
        <mxCell id="Q9VDW2REFDaIjdWDE4UB-73" value="getNextId" style="edgeLabel;html=1;align=center;verticalAlign=middle;resizable=0;points=[];" vertex="1" connectable="0" parent="Q9VDW2REFDaIjdWDE4UB-72">
          <mxGeometry x="-0.1081" relative="1" as="geometry">
            <mxPoint x="11" y="-10" as="offset" />
          </mxGeometry>
        </mxCell>
        <mxCell id="Q9VDW2REFDaIjdWDE4UB-74" value="" style="rounded=0;whiteSpace=wrap;html=1;" vertex="1" parent="1">
          <mxGeometry x="760" y="400" width="10" height="20" as="geometry" />
        </mxCell>
        <mxCell id="Q9VDW2REFDaIjdWDE4UB-75" value="" style="endArrow=classic;startArrow=classic;html=1;rounded=0;" edge="1" parent="1">
          <mxGeometry width="50" height="50" relative="1" as="geometry">
            <mxPoint x="219" y="429.99999999999994" as="sourcePoint" />
            <mxPoint x="609" y="430" as="targetPoint" />
          </mxGeometry>
        </mxCell>
        <mxCell id="Q9VDW2REFDaIjdWDE4UB-76" value="getAvailablePort" style="edgeLabel;html=1;align=center;verticalAlign=middle;resizable=0;points=[];" vertex="1" connectable="0" parent="Q9VDW2REFDaIjdWDE4UB-75">
          <mxGeometry x="-0.1081" relative="1" as="geometry">
            <mxPoint x="21" y="-10" as="offset" />
          </mxGeometry>
        </mxCell>
        <mxCell id="Q9VDW2REFDaIjdWDE4UB-78" value="" style="edgeStyle=orthogonalEdgeStyle;rounded=0;orthogonalLoop=1;jettySize=auto;html=1;endArrow=none;endFill=0;dashed=1;" edge="1" parent="1" source="Q9VDW2REFDaIjdWDE4UB-20" target="Q9VDW2REFDaIjdWDE4UB-77">
          <mxGeometry relative="1" as="geometry">
            <mxPoint x="200" y="1252.507745150862" as="targetPoint" />
            <mxPoint x="205" y="300" as="sourcePoint" />
            <Array as="points" />
          </mxGeometry>
        </mxCell>
        <mxCell id="Q9VDW2REFDaIjdWDE4UB-77" value="" style="rounded=0;whiteSpace=wrap;html=1;" vertex="1" parent="1">
          <mxGeometry x="200" y="420" width="10" height="20" as="geometry" />
        </mxCell>
        <mxCell id="Q9VDW2REFDaIjdWDE4UB-79" value="" style="endArrow=none;startArrow=classic;html=1;rounded=0;endFill=0;dashed=1;" edge="1" parent="1">
          <mxGeometry width="50" height="50" relative="1" as="geometry">
            <mxPoint x="-90" y="429.66" as="sourcePoint" />
            <mxPoint x="190" y="430" as="targetPoint" />
          </mxGeometry>
        </mxCell>
        <mxCell id="Q9VDW2REFDaIjdWDE4UB-80" value="500" style="edgeLabel;html=1;align=center;verticalAlign=middle;resizable=0;points=[];" vertex="1" connectable="0" parent="Q9VDW2REFDaIjdWDE4UB-79">
          <mxGeometry x="-0.3514" y="-1" relative="1" as="geometry">
            <mxPoint x="-71" y="-1" as="offset" />
          </mxGeometry>
        </mxCell>
        <mxCell id="Q9VDW2REFDaIjdWDE4UB-81" value="" style="endArrow=classic;startArrow=classic;html=1;rounded=0;" edge="1" parent="1">
          <mxGeometry width="50" height="50" relative="1" as="geometry">
            <mxPoint x="219" y="449.99999999999994" as="sourcePoint" />
            <mxPoint x="609" y="450" as="targetPoint" />
          </mxGeometry>
        </mxCell>
        <mxCell id="Q9VDW2REFDaIjdWDE4UB-82" value="getIpv4" style="edgeLabel;html=1;align=center;verticalAlign=middle;resizable=0;points=[];" vertex="1" connectable="0" parent="Q9VDW2REFDaIjdWDE4UB-81">
          <mxGeometry x="-0.1081" relative="1" as="geometry">
            <mxPoint x="11" y="-10" as="offset" />
          </mxGeometry>
        </mxCell>
        <mxCell id="Q9VDW2REFDaIjdWDE4UB-83" value="" style="rounded=0;whiteSpace=wrap;html=1;" vertex="1" parent="1">
          <mxGeometry x="200" y="440" width="10" height="20" as="geometry" />
        </mxCell>
        <mxCell id="Q9VDW2REFDaIjdWDE4UB-84" value="" style="endArrow=none;startArrow=classic;html=1;rounded=0;endFill=0;dashed=1;" edge="1" parent="1">
          <mxGeometry width="50" height="50" relative="1" as="geometry">
            <mxPoint x="-90" y="449.66" as="sourcePoint" />
            <mxPoint x="190" y="450" as="targetPoint" />
          </mxGeometry>
        </mxCell>
        <mxCell id="Q9VDW2REFDaIjdWDE4UB-85" value="500" style="edgeLabel;html=1;align=center;verticalAlign=middle;resizable=0;points=[];" vertex="1" connectable="0" parent="Q9VDW2REFDaIjdWDE4UB-84">
          <mxGeometry x="-0.3514" y="-1" relative="1" as="geometry">
            <mxPoint x="-71" y="-1" as="offset" />
          </mxGeometry>
        </mxCell>
        <mxCell id="Q9VDW2REFDaIjdWDE4UB-86" value="" style="endArrow=classic;startArrow=classic;html=1;rounded=0;" edge="1" parent="1">
          <mxGeometry width="50" height="50" relative="1" as="geometry">
            <mxPoint x="500" y="489.99999999999994" as="sourcePoint" />
            <mxPoint x="610" y="489.99999999999994" as="targetPoint" />
          </mxGeometry>
        </mxCell>
        <mxCell id="Q9VDW2REFDaIjdWDE4UB-87" value="saveAndGetPath" style="edgeLabel;html=1;align=center;verticalAlign=middle;resizable=0;points=[];" vertex="1" connectable="0" parent="Q9VDW2REFDaIjdWDE4UB-86">
          <mxGeometry x="-0.1081" relative="1" as="geometry">
            <mxPoint x="11" y="-10" as="offset" />
          </mxGeometry>
        </mxCell>
        <mxCell id="Q9VDW2REFDaIjdWDE4UB-88" value="" style="rounded=0;whiteSpace=wrap;html=1;" vertex="1" parent="1">
          <mxGeometry x="480" y="480" width="10" height="20" as="geometry" />
        </mxCell>
        <mxCell id="Q9VDW2REFDaIjdWDE4UB-89" value="" style="endArrow=none;startArrow=classic;html=1;rounded=0;endFill=0;dashed=1;" edge="1" parent="1">
          <mxGeometry width="50" height="50" relative="1" as="geometry">
            <mxPoint x="-90" y="489.66" as="sourcePoint" />
            <mxPoint x="470" y="490" as="targetPoint" />
          </mxGeometry>
        </mxCell>
        <mxCell id="Q9VDW2REFDaIjdWDE4UB-90" value="500" style="edgeLabel;html=1;align=center;verticalAlign=middle;resizable=0;points=[];" vertex="1" connectable="0" parent="Q9VDW2REFDaIjdWDE4UB-89">
          <mxGeometry x="-0.3514" y="-1" relative="1" as="geometry">
            <mxPoint x="-161" y="-1" as="offset" />
          </mxGeometry>
        </mxCell>
        <mxCell id="Q9VDW2REFDaIjdWDE4UB-92" style="edgeStyle=orthogonalEdgeStyle;rounded=0;orthogonalLoop=1;jettySize=auto;html=1;endArrow=none;endFill=0;dashed=1;" edge="1" parent="1" source="Q9VDW2REFDaIjdWDE4UB-91">
          <mxGeometry relative="1" as="geometry">
            <mxPoint x="905" y="680" as="targetPoint" />
          </mxGeometry>
        </mxCell>
        <mxCell id="Q9VDW2REFDaIjdWDE4UB-91" value="ShellService&lt;br&gt;.java" style="rounded=0;whiteSpace=wrap;html=1;" vertex="1" parent="1">
          <mxGeometry x="840" y="150" width="130" height="60" as="geometry" />
        </mxCell>
        <mxCell id="Q9VDW2REFDaIjdWDE4UB-93" value="" style="endArrow=classic;startArrow=classic;html=1;rounded=0;" edge="1" parent="1">
          <mxGeometry width="50" height="50" relative="1" as="geometry">
            <mxPoint x="640" y="510" as="sourcePoint" />
            <mxPoint x="890" y="510" as="targetPoint" />
          </mxGeometry>
        </mxCell>
        <mxCell id="Q9VDW2REFDaIjdWDE4UB-94" value="execSeqSync &amp;lt;buildImage&amp;gt;" style="edgeLabel;html=1;align=center;verticalAlign=middle;resizable=0;points=[];" vertex="1" connectable="0" parent="Q9VDW2REFDaIjdWDE4UB-93">
          <mxGeometry x="-0.1081" relative="1" as="geometry">
            <mxPoint x="11" y="-10" as="offset" />
          </mxGeometry>
        </mxCell>
        <mxCell id="Q9VDW2REFDaIjdWDE4UB-95" value="" style="rounded=0;whiteSpace=wrap;html=1;" vertex="1" parent="1">
          <mxGeometry x="900" y="500" width="10" height="20" as="geometry" />
        </mxCell>
        <mxCell id="Q9VDW2REFDaIjdWDE4UB-96" value="" style="endArrow=none;startArrow=classic;html=1;rounded=0;endFill=0;dashed=1;" edge="1" parent="1">
          <mxGeometry width="50" height="50" relative="1" as="geometry">
            <mxPoint x="-90" y="509.58000000000004" as="sourcePoint" />
            <mxPoint x="610" y="510" as="targetPoint" />
          </mxGeometry>
        </mxCell>
        <mxCell id="Q9VDW2REFDaIjdWDE4UB-97" value="500" style="edgeLabel;html=1;align=center;verticalAlign=middle;resizable=0;points=[];" vertex="1" connectable="0" parent="Q9VDW2REFDaIjdWDE4UB-96">
          <mxGeometry x="-0.3514" y="-1" relative="1" as="geometry">
            <mxPoint x="-207" y="-1" as="offset" />
          </mxGeometry>
        </mxCell>
        <mxCell id="Q9VDW2REFDaIjdWDE4UB-98" value="*mildly simplified" style="text;html=1;strokeColor=none;fillColor=none;align=center;verticalAlign=middle;whiteSpace=wrap;rounded=0;" vertex="1" parent="1">
          <mxGeometry x="60" y="20" width="265" height="30" as="geometry" />
        </mxCell>
        <mxCell id="Q9VDW2REFDaIjdWDE4UB-100" value="" style="rounded=0;whiteSpace=wrap;html=1;" vertex="1" parent="1">
          <mxGeometry x="1185" y="500" width="10" height="20" as="geometry" />
        </mxCell>
        <mxCell id="Q9VDW2REFDaIjdWDE4UB-101" value="" style="endArrow=classic;startArrow=classic;html=1;rounded=0;" edge="1" parent="1">
          <mxGeometry width="50" height="50" relative="1" as="geometry">
            <mxPoint x="920" y="509.65999999999997" as="sourcePoint" />
            <mxPoint x="1180" y="510" as="targetPoint" />
          </mxGeometry>
        </mxCell>
        <mxCell id="Q9VDW2REFDaIjdWDE4UB-102" value="docker build" style="edgeLabel;html=1;align=center;verticalAlign=middle;resizable=0;points=[];" vertex="1" connectable="0" parent="Q9VDW2REFDaIjdWDE4UB-101">
          <mxGeometry x="-0.1081" relative="1" as="geometry">
            <mxPoint x="7" y="-10" as="offset" />
          </mxGeometry>
        </mxCell>
        <mxCell id="Q9VDW2REFDaIjdWDE4UB-103" value="" style="endArrow=classic;startArrow=classic;html=1;rounded=0;" edge="1" parent="1">
          <mxGeometry width="50" height="50" relative="1" as="geometry">
            <mxPoint x="640" y="530" as="sourcePoint" />
            <mxPoint x="890" y="530" as="targetPoint" />
          </mxGeometry>
        </mxCell>
        <mxCell id="Q9VDW2REFDaIjdWDE4UB-104" value="execSeqSync &amp;lt;startContainer&amp;gt;" style="edgeLabel;html=1;align=center;verticalAlign=middle;resizable=0;points=[];" vertex="1" connectable="0" parent="Q9VDW2REFDaIjdWDE4UB-103">
          <mxGeometry x="-0.1081" relative="1" as="geometry">
            <mxPoint x="11" y="-10" as="offset" />
          </mxGeometry>
        </mxCell>
        <mxCell id="Q9VDW2REFDaIjdWDE4UB-105" value="" style="rounded=0;whiteSpace=wrap;html=1;" vertex="1" parent="1">
          <mxGeometry x="900" y="520" width="10" height="20" as="geometry" />
        </mxCell>
        <mxCell id="Q9VDW2REFDaIjdWDE4UB-106" value="" style="rounded=0;whiteSpace=wrap;html=1;" vertex="1" parent="1">
          <mxGeometry x="1185" y="520" width="10" height="20" as="geometry" />
        </mxCell>
        <mxCell id="Q9VDW2REFDaIjdWDE4UB-107" value="" style="endArrow=classic;startArrow=classic;html=1;rounded=0;" edge="1" parent="1">
          <mxGeometry width="50" height="50" relative="1" as="geometry">
            <mxPoint x="920" y="529.66" as="sourcePoint" />
            <mxPoint x="1180" y="530" as="targetPoint" />
          </mxGeometry>
        </mxCell>
        <mxCell id="Q9VDW2REFDaIjdWDE4UB-108" value="docker run" style="edgeLabel;html=1;align=center;verticalAlign=middle;resizable=0;points=[];" vertex="1" connectable="0" parent="Q9VDW2REFDaIjdWDE4UB-107">
          <mxGeometry x="-0.1081" relative="1" as="geometry">
            <mxPoint x="7" y="-10" as="offset" />
          </mxGeometry>
        </mxCell>
        <mxCell id="Q9VDW2REFDaIjdWDE4UB-109" value="" style="endArrow=none;startArrow=classic;html=1;rounded=0;endFill=0;dashed=1;" edge="1" parent="1">
          <mxGeometry width="50" height="50" relative="1" as="geometry">
            <mxPoint x="-90" y="529.5" as="sourcePoint" />
            <mxPoint x="610" y="529.9200000000001" as="targetPoint" />
          </mxGeometry>
        </mxCell>
        <mxCell id="Q9VDW2REFDaIjdWDE4UB-110" value="500" style="edgeLabel;html=1;align=center;verticalAlign=middle;resizable=0;points=[];" vertex="1" connectable="0" parent="Q9VDW2REFDaIjdWDE4UB-109">
          <mxGeometry x="-0.3514" y="-1" relative="1" as="geometry">
            <mxPoint x="-207" y="-1" as="offset" />
          </mxGeometry>
        </mxCell>
        <mxCell id="Q9VDW2REFDaIjdWDE4UB-111" value="" style="endArrow=classic;startArrow=classic;html=1;rounded=0;" edge="1" parent="1">
          <mxGeometry width="50" height="50" relative="1" as="geometry">
            <mxPoint x="640" y="550" as="sourcePoint" />
            <mxPoint x="750" y="550" as="targetPoint" />
          </mxGeometry>
        </mxCell>
        <mxCell id="Q9VDW2REFDaIjdWDE4UB-112" value="addDeployed" style="edgeLabel;html=1;align=center;verticalAlign=middle;resizable=0;points=[];" vertex="1" connectable="0" parent="Q9VDW2REFDaIjdWDE4UB-111">
          <mxGeometry x="-0.1081" relative="1" as="geometry">
            <mxPoint x="11" y="-10" as="offset" />
          </mxGeometry>
        </mxCell>
        <mxCell id="Q9VDW2REFDaIjdWDE4UB-113" value="" style="rounded=0;whiteSpace=wrap;html=1;" vertex="1" parent="1">
          <mxGeometry x="760" y="540" width="10" height="20" as="geometry" />
        </mxCell>
        <mxCell id="Q9VDW2REFDaIjdWDE4UB-116" value="" style="endArrow=classic;html=1;rounded=0;" edge="1" parent="1">
          <mxGeometry width="50" height="50" relative="1" as="geometry">
            <mxPoint x="610" y="570" as="sourcePoint" />
            <mxPoint x="80" y="570" as="targetPoint" />
          </mxGeometry>
        </mxCell>
        <mxCell id="Q9VDW2REFDaIjdWDE4UB-119" value="" style="edgeStyle=orthogonalEdgeStyle;rounded=0;orthogonalLoop=1;jettySize=auto;html=1;endArrow=none;endFill=0;dashed=1;" edge="1" parent="1" source="Q9VDW2REFDaIjdWDE4UB-4" target="Q9VDW2REFDaIjdWDE4UB-118">
          <mxGeometry relative="1" as="geometry">
            <mxPoint x="60" y="1252.507745150862" as="targetPoint" />
            <mxPoint x="65" y="210" as="sourcePoint" />
            <Array as="points" />
          </mxGeometry>
        </mxCell>
        <mxCell id="Q9VDW2REFDaIjdWDE4UB-118" value="" style="rounded=0;whiteSpace=wrap;html=1;" vertex="1" parent="1">
          <mxGeometry x="60" y="560" width="10" height="60" as="geometry" />
        </mxCell>
        <mxCell id="Q9VDW2REFDaIjdWDE4UB-121" style="edgeStyle=orthogonalEdgeStyle;rounded=0;orthogonalLoop=1;jettySize=auto;html=1;endArrow=none;endFill=0;dashed=1;" edge="1" parent="1" source="Q9VDW2REFDaIjdWDE4UB-120">
          <mxGeometry relative="1" as="geometry">
            <mxPoint x="1045" y="680" as="targetPoint" />
          </mxGeometry>
        </mxCell>
        <mxCell id="Q9VDW2REFDaIjdWDE4UB-120" value="MetadataAggregator&lt;br&gt;.java" style="rounded=0;whiteSpace=wrap;html=1;" vertex="1" parent="1">
          <mxGeometry x="980" y="150" width="130" height="60" as="geometry" />
        </mxCell>
        <mxCell id="Q9VDW2REFDaIjdWDE4UB-122" value="" style="endArrow=classic;html=1;rounded=0;startArrow=classic;startFill=1;endFill=1;" edge="1" parent="1">
          <mxGeometry width="50" height="50" relative="1" as="geometry">
            <mxPoint x="1030" y="590" as="sourcePoint" />
            <mxPoint x="80" y="590" as="targetPoint" />
          </mxGeometry>
        </mxCell>
        <mxCell id="Q9VDW2REFDaIjdWDE4UB-123" value="getFor" style="edgeLabel;html=1;align=center;verticalAlign=middle;resizable=0;points=[];" vertex="1" connectable="0" parent="Q9VDW2REFDaIjdWDE4UB-122">
          <mxGeometry x="0.1452" relative="1" as="geometry">
            <mxPoint x="69" y="-10" as="offset" />
          </mxGeometry>
        </mxCell>
        <mxCell id="Q9VDW2REFDaIjdWDE4UB-124" value="" style="rounded=0;whiteSpace=wrap;html=1;" vertex="1" parent="1">
          <mxGeometry x="1040" y="580" width="10" height="20" as="geometry" />
        </mxCell>
        <mxCell id="Q9VDW2REFDaIjdWDE4UB-125" value="" style="endArrow=none;startArrow=classic;html=1;rounded=0;endFill=0;dashed=1;" edge="1" parent="1">
          <mxGeometry width="50" height="50" relative="1" as="geometry">
            <mxPoint x="-90" y="589.58" as="sourcePoint" />
            <mxPoint x="50" y="590" as="targetPoint" />
          </mxGeometry>
        </mxCell>
        <mxCell id="Q9VDW2REFDaIjdWDE4UB-126" value="424" style="edgeLabel;html=1;align=center;verticalAlign=middle;resizable=0;points=[];" vertex="1" connectable="0" parent="Q9VDW2REFDaIjdWDE4UB-125">
          <mxGeometry x="-0.3514" y="-1" relative="1" as="geometry">
            <mxPoint x="-25" y="-1" as="offset" />
          </mxGeometry>
        </mxCell>
        <mxCell id="Q9VDW2REFDaIjdWDE4UB-128" value="" style="endArrow=classic;startArrow=classic;html=1;rounded=0;" edge="1" parent="1">
          <mxGeometry width="50" height="50" relative="1" as="geometry">
            <mxPoint x="1060" y="589.5799999999999" as="sourcePoint" />
            <mxPoint x="1320" y="589.92" as="targetPoint" />
          </mxGeometry>
        </mxCell>
        <mxCell id="Q9VDW2REFDaIjdWDE4UB-129" value="/metadata" style="edgeLabel;html=1;align=center;verticalAlign=middle;resizable=0;points=[];" vertex="1" connectable="0" parent="Q9VDW2REFDaIjdWDE4UB-128">
          <mxGeometry x="-0.1081" relative="1" as="geometry">
            <mxPoint x="7" y="-10" as="offset" />
          </mxGeometry>
        </mxCell>
        <mxCell id="Q9VDW2REFDaIjdWDE4UB-130" value="" style="rounded=0;whiteSpace=wrap;html=1;" vertex="1" parent="1">
          <mxGeometry x="1325" y="580" width="10" height="20" as="geometry" />
        </mxCell>
        <mxCell id="Q9VDW2REFDaIjdWDE4UB-133" value="" style="edgeStyle=orthogonalEdgeStyle;rounded=0;orthogonalLoop=1;jettySize=auto;html=1;endArrow=none;endFill=0;dashed=1;" edge="1" parent="1" source="Q9VDW2REFDaIjdWDE4UB-64" target="Q9VDW2REFDaIjdWDE4UB-132">
          <mxGeometry relative="1" as="geometry">
            <mxPoint x="485" y="1270.346400669643" as="targetPoint" />
            <mxPoint x="485" y="380" as="sourcePoint" />
          </mxGeometry>
        </mxCell>
        <mxCell id="Q9VDW2REFDaIjdWDE4UB-132" value="" style="rounded=0;whiteSpace=wrap;html=1;" vertex="1" parent="1">
          <mxGeometry x="480" y="460" width="10" height="20" as="geometry" />
        </mxCell>
        <mxCell id="Q9VDW2REFDaIjdWDE4UB-131" value="" style="rounded=0;whiteSpace=wrap;html=1;" vertex="1" parent="1">
          <mxGeometry x="480" y="380" width="10" height="20" as="geometry" />
        </mxCell>
        <mxCell id="Q9VDW2REFDaIjdWDE4UB-134" value="" style="endArrow=classic;startArrow=classic;html=1;rounded=0;" edge="1" parent="1">
          <mxGeometry width="50" height="50" relative="1" as="geometry">
            <mxPoint x="500" y="389.74999999999994" as="sourcePoint" />
            <mxPoint x="610" y="389.74999999999994" as="targetPoint" />
          </mxGeometry>
        </mxCell>
        <mxCell id="Q9VDW2REFDaIjdWDE4UB-135" value="fillSpecEnvVars" style="edgeLabel;html=1;align=center;verticalAlign=middle;resizable=0;points=[];" vertex="1" connectable="0" parent="Q9VDW2REFDaIjdWDE4UB-134">
          <mxGeometry x="-0.1081" relative="1" as="geometry">
            <mxPoint x="11" y="-10" as="offset" />
          </mxGeometry>
        </mxCell>
        <mxCell id="Q9VDW2REFDaIjdWDE4UB-137" value="" style="endArrow=classic;startArrow=classic;html=1;rounded=0;" edge="1" parent="1">
          <mxGeometry width="50" height="50" relative="1" as="geometry">
            <mxPoint x="500" y="469.99999999999994" as="sourcePoint" />
            <mxPoint x="610" y="469.99999999999994" as="targetPoint" />
          </mxGeometry>
        </mxCell>
        <mxCell id="Q9VDW2REFDaIjdWDE4UB-138" value="fillHostEnvVars" style="edgeLabel;html=1;align=center;verticalAlign=middle;resizable=0;points=[];" vertex="1" connectable="0" parent="Q9VDW2REFDaIjdWDE4UB-137">
          <mxGeometry x="-0.1081" relative="1" as="geometry">
            <mxPoint x="11" y="-10" as="offset" />
          </mxGeometry>
        </mxCell>
        <mxCell id="Q9VDW2REFDaIjdWDE4UB-140" value="" style="endArrow=none;html=1;rounded=0;endFill=0;startArrow=classic;startFill=1;" edge="1" parent="1">
          <mxGeometry width="50" height="50" relative="1" as="geometry">
            <mxPoint x="-90" y="610" as="sourcePoint" />
            <mxPoint x="50" y="610" as="targetPoint" />
          </mxGeometry>
        </mxCell>
        <mxCell id="Q9VDW2REFDaIjdWDE4UB-141" value="200" style="edgeLabel;html=1;align=center;verticalAlign=middle;resizable=0;points=[];" vertex="1" connectable="0" parent="Q9VDW2REFDaIjdWDE4UB-140">
          <mxGeometry x="-0.1101" y="1" relative="1" as="geometry">
            <mxPoint x="28" y="-9" as="offset" />
          </mxGeometry>
        </mxCell>
        <mxCell id="Q9VDW2REFDaIjdWDE4UB-143" value="" style="edgeStyle=orthogonalEdgeStyle;rounded=0;orthogonalLoop=1;jettySize=auto;html=1;endArrow=none;endFill=0;dashed=1;" edge="1" parent="1" source="Q9VDW2REFDaIjdWDE4UB-1" target="Q9VDW2REFDaIjdWDE4UB-142">
          <mxGeometry relative="1" as="geometry">
            <mxPoint x="-105" y="680" as="targetPoint" />
            <mxPoint x="-105" y="210" as="sourcePoint" />
          </mxGeometry>
        </mxCell>
        <mxCell id="Q9VDW2REFDaIjdWDE4UB-142" value="" style="rounded=0;whiteSpace=wrap;html=1;" vertex="1" parent="1">
          <mxGeometry x="-110" y="600" width="10" height="20" as="geometry" />
        </mxCell>
      </root>
    </mxGraphModel>
  </diagram>
</mxfile>
